# xmcd
#
# Track frame offsets:
#	150
#	1123
#	19306
#	24388
#	41421
#	46996
#	64632
#	72594
#	92642
#	110074
#	118680
#	134136
#	150267
#	166340
#	181092
#	191569
#	207454
#	220549
#	234177
#	248702
#	259350
#	272388
#	280651
#	291363
#	307516
#	321263
#
# Disc length: 4578 seconds
#
# Revision: 0
# Processed by: cddbd v1.5.1PL0 Copyright (c) Steve Scherf et al.
# Submitted via: audiograbber 1.83.01
#
DISCID=6711e01a
DTITLE=DJ Enuff and Kast One - Game Over
DYEAR=2004
DGENRE=Hip-Hop
TTITLE0=   - Intro
TTITLE1=Young Buck Feat. 50 Cent  - Let Me In
TTITLE2=Jay-Z - Steppin' In My S. Dots
TTITLE3=Jadakiss Feat. Anthony Hamilton - Why
TTITLE4=P. Diddy and Sunny  - Mase Is Back!
TTITLE5=Mase - Welcome Back
TTITLE6=Peedi Crakk  - Freestyle
TTITLE7=Shells - Put Ya X Up
TTITLE8=Fat Joe and Remy Martin - Lean Back
TTITLE9=G-Unit - Freestyle
TTITLE10=Lloyd Banks, 50 Cent and Reynos  - On Fire (Remix)
TTITLE11=Lord Tariq  - Lock In
TTITLE12=Reeks and Lil' Kim  - 1, 2, 3
TTITLE13=Young Buck, Lil' Flip and Bun B - Welcome To The South
TTITLE14=Cam'ron and Lil' Flip - Bust Ya Gunz
TTITLE15=Free and Beanie Sigel  - Wonder Why
TTITLE16=Asim and Fat Joe - Kick The Truth
TTITLE17=Lloyd Banks and 50 Cent  - Porno Star
TTITLE18=Jadakiss - Times Up (Remix)
TTITLE19=M.O.P - Here Today Gone Tomorrow
TTITLE20=Dre Robinson and Mobb Deep - Get Right
TTITLE21=Flawless  - Freestyle
TTITLE22=Cormega and Ghostface  - Exclusive
TTITLE23=Terror Squad Feat. Cam'ron - NY State Of Mind
TTITLE24=Jin - Get Off Me
TTITLE25=Cormega and M.O.P. - Let It Go
EXTD=Missing Track 27. Curtains - It's Like That\n
EXTT0=
EXTT1=
EXTT2=
EXTT3=
EXTT4=
EXTT5=
EXTT6=
EXTT7=
EXTT8=
EXTT9=
EXTT10=
EXTT11=
EXTT12=
EXTT13=
EXTT14=
EXTT15=
EXTT16=
EXTT17=
EXTT18=
EXTT19=
EXTT20=
EXTT21=
EXTT22=
EXTT23=
EXTT24=
EXTT25=
PLAYORDER=
